<svg width="830" height="683" viewBox="0 0 830 683" fill="none" xmlns="http://www.w3.org/2000/svg">
<path d="M45.085 681C41.529 672.279 37.6343 663.601 33.401 654.965C29.2523 646.244 24.765 637.524 19.939 628.803V681H5.842V602.387H18.415C20.7857 606.112 23.1563 610.176 25.527 614.579C27.8977 618.897 30.1837 623.215 32.385 627.533C34.671 631.851 36.7453 636.042 38.608 640.106C40.5553 644.17 42.2063 647.726 43.561 650.774V602.387H57.658V681H45.085ZM71.501 681V602.387H119.126V615.341H87.122V632.994H114.935V645.948H87.122V668.046H121.92V681H71.501ZM135.001 681V602.387H182.626V615.341H150.622V632.994H178.435V645.948H150.622V668.046H185.42V681H135.001ZM248.92 681H199.517V602.387H215.265V668.046H248.92V681ZM262.001 681V602.387H309.626V615.341H277.622V632.994H305.435V645.948H277.622V668.046H312.42V681H262.001ZM346.964 669.57C349.589 669.57 351.748 669.316 353.441 668.808C355.219 668.215 356.616 667.453 357.632 666.522C358.648 665.506 359.325 664.405 359.664 663.22C360.087 661.95 360.299 660.68 360.299 659.41C360.299 657.801 359.833 656.362 358.902 655.092C357.971 653.822 356.785 652.721 355.346 651.79C353.907 650.774 352.298 649.885 350.52 649.123C348.742 648.276 346.964 647.514 345.186 646.837C342.815 645.99 340.36 645.017 337.82 643.916C335.28 642.815 332.952 641.418 330.835 639.725C328.803 638.032 327.11 635.957 325.755 633.502C324.4 630.962 323.723 627.829 323.723 624.104C323.723 616.738 326.094 610.981 330.835 606.832C335.661 602.683 342.265 600.609 350.647 600.609C355.473 600.609 359.664 601.159 363.22 602.26C366.861 603.361 369.909 604.588 372.364 605.943L367.792 618.008C365.675 616.823 363.305 615.807 360.68 614.96C358.14 614.113 355.177 613.69 351.79 613.69C343.493 613.69 339.344 616.696 339.344 622.707C339.344 624.231 339.767 625.586 340.614 626.771C341.461 627.872 342.519 628.888 343.789 629.819C345.144 630.666 346.625 631.428 348.234 632.105C349.927 632.782 351.578 633.417 353.187 634.01C355.642 634.941 358.182 636 360.807 637.185C363.516 638.286 365.972 639.81 368.173 641.757C370.459 643.62 372.322 645.99 373.761 648.869C375.2 651.663 375.92 655.219 375.92 659.537C375.92 666.903 373.507 672.618 368.681 676.682C363.94 680.661 356.701 682.651 346.964 682.651C340.445 682.651 335.238 681.974 331.343 680.619C327.448 679.18 324.527 677.867 322.58 676.682L327.152 663.982C329.438 665.337 332.147 666.607 335.28 667.792C338.497 668.977 342.392 669.57 346.964 669.57ZM438.785 602.387V681H423.164V646.329H402.336V681H386.715V602.387H402.336V633.375H423.164V602.387H438.785ZM535.178 601.498C539.665 601.498 543.729 602.006 547.37 603.022C551.011 604.038 554.143 605.604 556.768 607.721C559.393 609.838 561.382 612.547 562.737 615.849C564.176 619.066 564.896 622.876 564.896 627.279C564.896 631.851 563.965 636 562.102 639.725C560.239 643.45 557.149 646.287 552.831 648.234C554.27 650.435 555.794 652.891 557.403 655.6C559.012 658.225 560.578 661.019 562.102 663.982C563.626 666.861 565.065 669.782 566.42 672.745C567.859 675.624 569.087 678.375 570.103 681H553.72C551.773 675.92 549.487 671.052 546.862 666.395C544.322 661.654 541.57 656.87 538.607 652.044H530.479V681H514.858V603.53C516.382 603.191 518.033 602.895 519.811 602.641C521.674 602.302 523.536 602.091 525.399 602.006C527.262 601.837 529.04 601.71 530.733 601.625C532.426 601.54 533.908 601.498 535.178 601.498ZM549.021 627.152C549.021 623.003 547.751 619.955 545.211 618.008C542.671 616.061 539.327 615.087 535.178 615.087C534.585 615.087 533.866 615.129 533.019 615.214C532.172 615.214 531.326 615.299 530.479 615.468V639.09H533.908C539.242 639.09 543.094 638.074 545.465 636.042C547.836 633.925 549.021 630.962 549.021 627.152ZM579.501 681V602.387H627.126V615.341H595.122V632.994H622.935V645.948H595.122V668.046H629.92V681H579.501ZM657.479 668.3C657.902 668.385 658.368 668.427 658.876 668.427C659.384 668.427 659.85 668.427 660.273 668.427C663.829 668.427 666.792 667.75 669.163 666.395C671.618 665.04 673.566 663.178 675.005 660.807C676.529 658.436 677.587 655.642 678.18 652.425C678.857 649.123 679.196 645.525 679.196 641.63C679.196 638.243 678.942 634.941 678.434 631.724C677.926 628.507 677.037 625.67 675.767 623.215C674.497 620.76 672.761 618.812 670.56 617.373C668.359 615.849 665.522 615.087 662.051 615.087C661.374 615.087 660.612 615.129 659.765 615.214C658.918 615.214 658.156 615.299 657.479 615.468V668.3ZM695.071 641.63C695.071 648.911 694.14 655.134 692.277 660.299C690.499 665.379 688.001 669.528 684.784 672.745C681.567 675.962 677.714 678.333 673.227 679.857C668.824 681.296 663.956 682.016 658.622 682.016C655.828 682.016 653.076 681.847 650.367 681.508C647.742 681.254 644.906 680.788 641.858 680.111V603.403C645.414 602.641 648.758 602.133 651.891 601.879C655.024 601.625 657.945 601.498 660.654 601.498C665.819 601.498 670.518 602.26 674.751 603.784C679.069 605.308 682.71 607.721 685.673 611.023C688.636 614.24 690.922 618.389 692.531 623.469C694.224 628.464 695.071 634.518 695.071 641.63ZM720.979 668.3C721.402 668.385 721.868 668.427 722.376 668.427C722.884 668.427 723.35 668.427 723.773 668.427C727.329 668.427 730.292 667.75 732.663 666.395C735.118 665.04 737.066 663.178 738.505 660.807C740.029 658.436 741.087 655.642 741.68 652.425C742.357 649.123 742.696 645.525 742.696 641.63C742.696 638.243 742.442 634.941 741.934 631.724C741.426 628.507 740.537 625.67 739.267 623.215C737.997 620.76 736.261 618.812 734.06 617.373C731.859 615.849 729.022 615.087 725.551 615.087C724.874 615.087 724.112 615.129 723.265 615.214C722.418 615.214 721.656 615.299 720.979 615.468V668.3ZM758.571 641.63C758.571 648.911 757.64 655.134 755.777 660.299C753.999 665.379 751.501 669.528 748.284 672.745C745.067 675.962 741.214 678.333 736.727 679.857C732.324 681.296 727.456 682.016 722.122 682.016C719.328 682.016 716.576 681.847 713.867 681.508C711.242 681.254 708.406 680.788 705.358 680.111V603.403C708.914 602.641 712.258 602.133 715.391 601.879C718.524 601.625 721.445 601.498 724.154 601.498C729.319 601.498 734.018 602.26 738.251 603.784C742.569 605.308 746.21 607.721 749.173 611.023C752.136 614.24 754.422 618.389 756.031 623.469C757.724 628.464 758.571 634.518 758.571 641.63ZM794.258 638.328C795.189 636.381 796.248 633.925 797.433 630.962C798.703 627.999 799.931 624.866 801.116 621.564C802.386 618.262 803.571 614.918 804.672 611.531C805.857 608.144 806.916 605.096 807.847 602.387H823.976C822.367 606.705 820.759 610.896 819.15 614.96C817.541 619.024 815.848 623.046 814.07 627.025C812.292 631.004 810.387 634.984 808.355 638.963C806.323 642.858 804.122 646.879 801.751 651.028V681H786.003V651.155C781.346 642.942 777.24 634.941 773.684 627.152C770.213 619.278 766.868 611.023 763.651 602.387H780.415C782.362 608.483 784.521 614.706 786.892 621.056C789.263 627.321 791.718 633.079 794.258 638.328Z" fill="black"/>
<path fill-rule="evenodd" clip-rule="evenodd" d="M420.21 122.5H361.76L829.52 554.89H649.73L182.15 122.67V0.459961H334.97V0H519.49C632.1 0 736.33 33.48 736.33 194.78C736.33 291.77 698.17 340.52 643.87 364.03L537.36 265.57C566.88 262.1 589.49 245.25 589.49 194.78C589.49 136.19 559.82 122.5 524.06 122.5H420.21Z" fill="black"/>
<path fill-rule="evenodd" clip-rule="evenodd" d="M0 0H0.0599976L138.48 129.53V556.18H0V0Z" fill="black"/>
<path fill-rule="evenodd" clip-rule="evenodd" d="M0 0.859375L593.63 553.109H390.33L0 189.989V0.859375Z" fill="black"/>
<path fill-rule="evenodd" clip-rule="evenodd" d="M280.47 93.0095L265.85 200.03L46.8398 0.519531H284.43L280.47 93.0095Z" fill="black"/>
</svg>
